<svg width="86" height="82" viewBox="0 0 86 82" fill="none" xmlns="http://www.w3.org/2000/svg">
<path d="M43 0C19.264 0 0 18.368 0 41C0 63.632 19.264 82 43 82C66.736 82 86 63.632 86 41C86 18.368 66.736 0 43 0ZM43 16.4C51.299 16.4 58.05 22.837 58.05 30.75C58.05 38.663 51.299 45.1 43 45.1C34.701 45.1 27.95 38.663 27.95 30.75C27.95 22.837 34.701 16.4 43 16.4ZM43 73.8C34.271 73.8 23.951 70.438 16.598 61.992C23.865 56.58 33.024 53.3 43 53.3C52.976 53.3 62.135 56.58 69.402 61.992C62.049 70.438 51.729 73.8 43 73.8Z" fill="white"/>
</svg>
