<svg width="88" height="55" viewBox="0 0 88 55" fill="none" xmlns="http://www.w3.org/2000/svg">
<path d="M80 1.61765C75.56 0.485294 70.68 0 66 0C58.2 0 49.8 1.29412 44 4.85294C38.2 1.29412 29.8 0 22 0C14.2 0 5.8 1.29412 0 4.85294V52.25C0 53.0588 1 53.8676 2 53.8676C2.4 53.8676 2.6 53.7059 3 53.7059C8.4 51.6029 16.2 50.1471 22 50.1471C29.8 50.1471 38.2 51.4412 44 55C49.4 52.25 59.2 50.1471 66 50.1471C72.6 50.1471 79.4 51.1176 85 53.5441C85.4 53.7059 85.6 53.7059 86 53.7059C87 53.7059 88 52.8971 88 52.0882V4.85294C85.6 3.39706 83 2.42647 80 1.61765ZM80 45.2941C75.6 44.1618 70.8 43.6765 66 43.6765C59.2 43.6765 49.4 45.7794 44 48.5294V11.3235C49.4 8.57353 59.2 6.47059 66 6.47059C70.8 6.47059 75.6 6.95588 80 8.08823V45.2941Z" fill="white"/>
</svg>
