<svg width="71" height="63" viewBox="0 0 71 63" fill="none" xmlns="http://www.w3.org/2000/svg">
<path d="M0 27.979H31.5555V0H0V27.979ZM7.88889 6.99475H23.6667V20.9842H7.88889V6.99475Z" fill="white"/>
<path d="M0 62.9526H31.5555V34.9736H0V62.9526ZM7.88889 41.9684H23.6667V55.9579H7.88889V41.9684Z" fill="white"/>
<path d="M39.4445 0V27.979H71V0H39.4445ZM63.1111 20.9842H47.3333V6.99475H63.1111V20.9842Z" fill="white"/>
<path d="M71 55.958H63.1111V62.9528H71V55.958Z" fill="white"/>
<path d="M47.3333 34.9736H39.4445V41.9684H47.3333V34.9736Z" fill="white"/>
<path d="M55.2223 41.9685H47.3334V48.9633H55.2223V41.9685Z" fill="white"/>
<path d="M47.3333 48.9631H39.4445V55.9579H47.3333V48.9631Z" fill="white"/>
<path d="M55.2223 55.958H47.3334V62.9528H55.2223V55.958Z" fill="white"/>
<path d="M63.1112 48.9631H55.2223V55.9579H63.1112V48.9631Z" fill="white"/>
<path d="M63.1112 34.9736H55.2223V41.9684H63.1112V34.9736Z" fill="white"/>
<path d="M71 41.9685H63.1111V48.9633H71V41.9685Z" fill="white"/>
</svg>
